<?xml version="1.0" encoding="UTF-8"?>
<svg id="Layer_1" data-name="Layer 1" xmlns="http://www.w3.org/2000/svg" viewBox="0 0 830.54 139.04">
  <defs>
    <style>
      .cls-1 {
        fill: #1746ea;
      }

      .cls-2 {
        fill: #021452;
      }
    </style>
  </defs>
  <path class="cls-2" d="M248.47,75.02c16.98,0,27.77,10.43,27.77,32.01s-10.79,32.01-27.77,32.01h-13.46c-17.1,0-27.77-10.43-27.77-32.01s10.67-32.01,27.77-32.01h13.46ZM236.22,87.39c-11.16,0-16.01,5.82-16.01,19.64s4.85,19.52,16.01,19.52h11.03c11.03,0,16.01-5.7,16.01-19.52s-4.97-19.64-16.01-19.64h-11.03Z"/>
  <path class="cls-2" d="M335.15,75.02v12.37h-22.55c-5.7,0-8.25,2.67-8.25,8.25v43.41h-12.85v-45.35c0-12.85,4.73-18.67,17.34-18.67h26.31Z"/>
  <path class="cls-2" d="M422.57,75.02c21.7,0,32.37,10.31,32.37,28.01v36.01h-12.97v-36.01c0-10.06-5.82-15.64-19.28-15.64h-15.04v51.65h-12.97v-51.65h-32.5c-1.09,0-1.58.61-1.58,1.82v49.83h-12.85v-54.08c0-7.52,2.55-9.94,8.97-9.94h65.84Z"/>
  <path class="cls-1" d="M536.78,57.2v14.31h-41.95c-7.4,0-10.67,4-10.67,9.7,0,4.97,2.55,9.7,12.13,9.7h19.16c22.31,0,27.52,12.37,27.52,24.13,0,13.82-7.4,24.01-26.07,24.01h-45.59v-14.31h46.08c7.76,0,11.28-4.24,11.28-10.19,0-5.33-2.79-10.18-12.85-10.18h-19.04c-21.82,0-26.92-12.25-26.92-23.64,0-13.58,7.28-23.52,25.46-23.52h41.47Z"/>
  <path class="cls-1" d="M568.49,135.79c-8.5-4.6-13.41-14.11-13.41-28.75,0-21.58,10.67-32.01,27.77-32.01h32.98v12.37h-31.77c-11.16,0-16.01,5.82-16.01,19.64s4.85,19.52,16.01,19.52h31.77v12.49h-32.98c-5.5,0-10.33-1.08-14.35-3.26"/>
  <path class="cls-1" d="M669.29,75.02c16.98,0,27.77,10.43,27.77,32.01s-10.79,32.01-27.77,32.01h-13.46c-17.1,0-27.77-10.43-27.77-32.01s10.67-32.01,27.77-32.01h13.46ZM657.05,87.39c-11.16,0-16.01,5.82-16.01,19.64s4.85,19.52,16.01,19.52h11.03c11.03,0,16.01-5.7,16.01-19.52s-4.97-19.64-16.01-19.64h-11.03Z"/>
  <path class="cls-1" d="M725.06,75.02v38.32c0,7.52,5.58,13.22,15.76,13.22h10.43c10.19,0,15.64-5.7,15.64-13.22v-38.32h12.61v38.8c0,14.79-9.46,25.22-27.77,25.22h-11.88c-18.31,0-27.77-10.43-27.77-25.22v-38.8h12.97Z"/>
  <path class="cls-1" d="M799.87,75.02v-15.16h12.97v15.16h17.7v12.37h-17.7v30.31c0,7.15,2.55,9.58,8.61,9.58h8.85v11.76h-11.52c-13.22,0-18.91-5.34-18.91-22.07v-29.59h-8.73v-12.37h8.73Z"/>
  <g>
    <path class="cls-2" d="M193.15,84.8v44.22c0,5.53-4.49,10.02-10.02,10.02h-42.11c-3.3,0-6.61-1.26-9.14-3.78-2.52-2.54-3.78-5.84-3.78-9.14v-20.47c0-17.49-14.17-31.66-31.66-31.66s-31.66,14.17-31.66,31.66v33.4H0v-31.8C0,62.2,31.22,24.43,73.2,14.43c7.12-1.69,14.55-2.6,22.21-2.6h22.95c4.55.37,6.85,1.97,8.11,3.36,3.84,4.23,2.38,11.23,2.5,26.27,0,0,.03,4.08.96,7.75.36,1.44.82,2.84,1.38,4.19.05.12.09.25.15.37,1.54,3.89,3.87,7.53,7.02,10.68,3.14,3.14,6.78,5.47,10.65,7.02t.03.02c1.58.68,3.24,1.21,4.95,1.61,3.46.81,6.21.86,7.38.88,14.78.14,23.43-1.85,28.23,2.55,1.4,1.29,3.04,3.63,3.43,8.27Z"/>
    <path class="cls-1" d="M183.17,5.14h19.32c2.38,0,4.31,1.93,4.31,4.31v1.09c0,2.38-1.93,4.31-4.31,4.31h-19.32V5.14h0Z" transform="translate(50.04 140.8) rotate(-45)"/>
    <path class="cls-1" d="M171.84,11.83c13.03,0,21.31,8,21.31,24.56s-8.28,24.56-21.31,24.56h-10.33c-13.12,0-21.31-8-21.31-24.56s8.19-24.56,21.31-24.56h10.33ZM162.44,21.32c-8.56,0-12.28,4.47-12.28,15.07s3.72,14.98,12.28,14.98h8.47c8.47,0,12.28-4.37,12.28-14.98s-3.81-15.07-12.28-15.07h-8.47Z"/>
  </g>
</svg>