<?xml version="1.0" encoding="UTF-8"?>
<svg id="Layer_1" data-name="Layer 1" xmlns="http://www.w3.org/2000/svg" xmlns:xlink="http://www.w3.org/1999/xlink" viewBox="0 0 378.82 256.96">
  <defs>
    <style>
      .cls-1 {
        fill: #1746ea;
      }

      .cls-2 {
        fill: url(#linear-gradient);
      }
    </style>
    <linearGradient id="linear-gradient" x1="0" y1="139.41" x2="356.95" y2="139.41" gradientUnits="userSpaceOnUse">
      <stop offset="0" stop-color="#010e3a"/>
      <stop offset="1" stop-color="#133dd1"/>
    </linearGradient>
  </defs>
  <path class="cls-2" d="M356.95,156.72v81.72c0,10.23-8.29,18.52-18.52,18.52h-77.83c-6.11,0-12.21-2.33-16.9-6.99-4.66-4.69-6.99-10.79-6.99-16.9v-37.83c0-32.32-26.19-58.51-58.51-58.51s-58.51,26.19-58.51,58.51v61.72H0v-58.77C0,114.94,57.69,45.16,135.29,26.66c13.15-3.12,26.9-4.8,41.04-4.8h42.41c8.4.68,12.65,3.65,14.98,6.21,7.1,7.81,4.4,20.76,4.62,48.55,0,0,.06,7.54,1.77,14.33.67,2.66,1.52,5.24,2.55,7.74.09.23.17.45.28.68,2.84,7.19,7.16,13.92,12.98,19.74,5.79,5.79,12.53,10.11,19.68,12.98t.06.03c2.93,1.25,5.99,2.24,9.15,2.98,6.39,1.5,11.47,1.6,13.63,1.62,27.32.26,43.3-3.42,52.18,4.71,2.59,2.38,5.63,6.72,6.33,15.28Z"/>
  <path class="cls-1" d="M338.5,9.51h35.7c4.4,0,7.97,3.57,7.97,7.97v2.01c0,4.4-3.57,7.97-7.97,7.97h-35.7V9.51h0Z" transform="translate(92.47 260.21) rotate(-45)"/>
  <path class="cls-1" d="M317.57,21.86c24.07,0,39.38,14.79,39.38,45.39s-15.3,45.39-39.38,45.39h-19.08c-24.25,0-39.38-14.79-39.38-45.39s15.13-45.39,39.38-45.39h19.08ZM300.21,39.4c-15.82,0-22.7,8.25-22.7,27.86s6.88,27.68,22.7,27.68h15.65c15.65,0,22.7-8.08,22.7-27.68s-7.05-27.86-22.7-27.86h-15.65Z"/>
</svg>